# xmcd
#
# Track frame offsets:
#	150
#	20373
#	33148
#	53120
#	67802
#	82803
#	99737
#	115975
#	130153
#	148209
#	159448
#	183615
#	199673
#
# Disc length: 2814 seconds
#
# Revision: 0
# Processed by: cddbd v1.5.2PL0 Copyright (c) Steve Scherf et al.
# Submitted via: EasyCDDAExtractor 15.2.0.1
#
DISCID=a90afc0d
DTITLE=Scott Kempner - Tenement Angels
DYEAR=1900
DGENRE=
TTITLE0=You Move Me
TTITLE1=Bad Intent
TTITLE2=I.C.U.
TTITLE3=Hot Rod Angel
TTITLE4=Love Among The Ruins
TTITLE5=Lonesome Train
TTITLE6=Precious Thing
TTITLE7=Livin' With Her, Livin' With Me
TTITLE8=Do You Believe In Me?
TTITLE9=(Just Like) Romeo And Juliet 
TTITLE10=Tender Mercies
TTITLE11=I Wanna Be Yours
TTITLE12=Merry Xmas, Baby
EXTD=
EXTT0=
EXTT1=
EXTT2=
EXTT3=
EXTT4=
EXTT5=
EXTT6=
EXTT7=
EXTT8=
EXTT9=
EXTT10=
EXTT11=
EXTT12=
PLAYORDER=
